<svg xmlns="http://www.w3.org/2000/svg" viewBox="0 0 64 64" role="img" aria-labelledby="title desc">
  <title id="title">Split Focus candidate mark</title>
  <desc id="desc">A simplified brain is divided by an S-shaped context-switch path.</desc>
  <defs>
    <mask id="switch-gap">
      <rect width="64" height="64" fill="white"/>
      <path d="M38 0C18 17 46 31 27 64" fill="none" stroke="black" stroke-width="7"/>
    </mask>
  </defs>
  <g mask="url(#switch-gap)">
    <path fill="#0d151a" d="M32 5C23 1 15 7 15 15 7 18 5 27 9 33c-3 8 2 16 9 18 2 8 9 11 14 7z"/>
    <path fill="#6fb2e8" d="M32 5c9-4 17 2 17 10 8 3 10 12 6 18 3 8-2 16-9 18-2 8-9 11-14 7z"/>
  </g>
</svg>
